<?xml version="1.0" ?><svg height="128" id="svg6449" version="1.1" viewBox="0 0 33.866666 33.866668" width="128" xmlns="http://www.w3.org/2000/svg" xmlns:cc="http://creativecommons.org/ns#" xmlns:dc="http://purl.org/dc/elements/1.1/" xmlns:inkscape="http://www.inkscape.org/namespaces/inkscape" xmlns:rdf="http://www.w3.org/1999/02/22-rdf-syntax-ns#" xmlns:sodipodi="http://sodipodi.sourceforge.net/DTD/sodipodi-0.dtd" xmlns:svg="http://www.w3.org/2000/svg"><defs id="defs6443"><clipPath clipPathUnits="userSpaceOnUse" id="clipPath5143"><ellipse cx="209.94763" cy="1573.1123" id="ellipse5145" rx="55.764446" ry="55.766594" style="display:inline;opacity:0.43500001;fill:#ffaaaa;fill-rule:evenodd;stroke:#333333;stroke-width:4.21448183;stroke-linecap:round;stroke-linejoin:round;stroke-miterlimit:4;stroke-dasharray:none;stroke-dashoffset:6.5999999;stroke-opacity:1"/></clipPath><clipPath clipPathUnits="userSpaceOnUse" id="clipPath11046"><ellipse cx="209.94763" cy="1380.6261" id="ellipse11048" rx="55.76445" ry="55.766594" style="display:inline;opacity:0.47600002;fill:#ffaaaa;fill-rule:evenodd;stroke:#333333;stroke-width:4.21448183;stroke-linecap:round;stroke-linejoin:round;stroke-miterlimit:4;stroke-dasharray:none;stroke-dashoffset:6.5999999;stroke-opacity:1"/></clipPath><clipPath clipPathUnits="userSpaceOnUse" id="clipPath8754"><ellipse cx="205.48343" cy="1298.3982" id="ellipse8756" rx="78.18396" ry="83.010139" style="display:inline;opacity:0.419;fill:#ffaaaa;fill-opacity:1;fill-rule:evenodd;stroke:#333333;stroke-width:4.21448183;stroke-linecap:round;stroke-linejoin:round;stroke-miterlimit:4;stroke-dasharray:none;stroke-dashoffset:6.5999999;stroke-opacity:1"/></clipPath><clipPath clipPathUnits="userSpaceOnUse" id="clipPath5060"><ellipse cx="68.499527" cy="1656.6876" id="ellipse5062" rx="71.409416" ry="71.223892" style="display:inline;opacity:0.45199998;fill:#ffe680;fill-rule:evenodd;stroke:#333333;stroke-width:4.21448183;stroke-linecap:round;stroke-linejoin:round;stroke-miterlimit:4;stroke-dasharray:none;stroke-dashoffset:6.5999999;stroke-opacity:1"/></clipPath><clipPath clipPathUnits="userSpaceOnUse" id="clipPath6174"><ellipse cx="128.2972" cy="1416.0679" id="ellipse6176" rx="55.76445" ry="55.766594" style="display:inline;opacity:0.572;fill:#ff9696;fill-opacity:1;fill-rule:evenodd;stroke:#333333;stroke-width:4.21448183;stroke-linecap:round;stroke-linejoin:round;stroke-miterlimit:4;stroke-dasharray:none;stroke-dashoffset:6.5999999;stroke-opacity:1"/></clipPath><clipPath clipPathUnits="userSpaceOnUse" id="clipPath5292"><ellipse cx="554.68481" cy="1234.8002" id="ellipse5294" rx="46.906162" ry="46.90797" style="display:inline;opacity:0.469;fill:#ffaaaa;fill-rule:evenodd;stroke:#333333;stroke-width:3.5625;stroke-linecap:round;stroke-linejoin:round;stroke-miterlimit:4;stroke-dasharray:none;stroke-dashoffset:6.5999999;stroke-opacity:1"/></clipPath><clipPath clipPathUnits="userSpaceOnUse" id="clipPath6537"><ellipse cx="2254.0229" cy="1364.222" id="ellipse6539" rx="114.45508" ry="114.4127" style="display:inline;fill:#d9ed88;fill-opacity:0.6;fill-rule:evenodd;stroke:#333333;stroke-width:9.00000095;stroke-linecap:round;stroke-linejoin:round;stroke-miterlimit:4;stroke-dasharray:none;stroke-dashoffset:6.5999999;stroke-opacity:1"/></clipPath></defs><g id="layer1" transform="translate(0,-263.13332)"><g id="g6173" style="paint-order:fill markers stroke" transform="matrix(0.13171557,0,0,0.13171458,-207.73499,158.98878)"><ellipse cx="1705.7081" cy="1030.4404" id="ellipse6169" rx="112.11687" ry="16.293594" style="opacity:0.694;fill:#808080;fill-rule:evenodd;stroke:none;stroke-width:1px;stroke-linecap:butt;stroke-linejoin:miter;stroke-opacity:1;paint-order:fill markers stroke"/><ellipse cx="1705.7081" cy="915.21991" id="ellipse6144" rx="119.01176" ry="119.01265" style="display:inline;fill:#ffccaa;fill-rule:evenodd;stroke:#333333;stroke-width:8.90538883;stroke-linecap:round;stroke-linejoin:round;stroke-miterlimit:4;stroke-dasharray:none;stroke-dashoffset:6.5999999;stroke-opacity:1;paint-order:fill markers stroke"/><path d="m 1714.3952,909.07238 c -13.1888,-0.0981 -31.6791,3.18558 -50.9887,19.16113 -23.7225,19.62667 -34.3223,47.1005 -31.9069,79.88209 a 119.01175,119.01265 0 0 0 74.2089,26.1173 119.01175,119.01265 0 0 0 88.2079,-39.31879 c -8.6068,-40.24756 -36.0682,-79.9445 -62.4741,-84.02325 -3.1282,-0.48323 -9.1339,-1.75953 -17.0471,-1.81848 z" id="path6146" style="display:inline;fill:#ff5555;fill-opacity:1;fill-rule:evenodd;stroke:#333333;stroke-width:8.90538883;stroke-linecap:round;stroke-linejoin:round;stroke-miterlimit:4;stroke-dasharray:none;stroke-dashoffset:6.5999999;stroke-opacity:1;paint-order:fill markers stroke"/><path d="m 1715.2717,913.46728 c -12.5983,-0.38069 -30.006,2.71767 -48.5262,17.97264 -22.5183,18.54821 -33.2289,43.80342 -30.9166,74.38908 20.1626,15.7365 45.6517,24.0164 71.4829,24.0392 11.318,0.01 23.6223,-2.4813 33.6468,-5.7248 3.0141,-15.6883 -0.111,-35.39099 -11.2237,-62.46656 -7.057,-17.19374 -7.8178,-34.45593 -11.3298,-48.11617 -1.009,-0.0501 -2.0464,-0.0854 -3.1334,-0.0934 z" id="path6152" style="opacity:1;fill:#f74848;fill-opacity:1;fill-rule:evenodd;stroke:none;stroke-width:9;stroke-linecap:round;stroke-linejoin:round;stroke-miterlimit:4;stroke-dasharray:none;stroke-dashoffset:0;stroke-opacity:1;paint-order:fill markers stroke"/><path d="m 1713.5881,911.57128 c -0.1606,-3.82212 -1.3327,-11.7615 1.6245,-16.08374 0.8839,-1.29177 2.3886,0.49638 3.919,1.22523 1.1972,0.5701 3.3266,-0.0394 3.9949,1.49501 2.8998,6.6546 2.2109,19.6566 1.9347,19.61778 -4.016,-0.56453 -8.4115,1.93254 -11.4731,-6.25428 z" id="path6150" style="display:inline;fill:#784421;fill-rule:evenodd;stroke:#333333;stroke-width:8.90538883;stroke-linecap:round;stroke-linejoin:round;stroke-miterlimit:4;stroke-dasharray:none;stroke-dashoffset:0;stroke-opacity:1;paint-order:fill markers stroke"/><path d="m 1807.6483,903.09376 c 3.4914,12.7766 1.4504,23.34482 -1.2892,34.00924" id="path6157" style="opacity:1;fill:none;fill-opacity:0;fill-rule:evenodd;stroke:#ffffff;stroke-width:5.93692541;stroke-linecap:round;stroke-linejoin:round;stroke-miterlimit:4;stroke-dasharray:none;stroke-dashoffset:0;stroke-opacity:1;paint-order:fill markers stroke"/><ellipse cx="1880.7189" cy="713.10931" id="ellipse6159" rx="3.5552814" ry="3.5554442" style="fill:#ffffff;fill-opacity:1;fill-rule:evenodd;stroke:#ffffff;stroke-width:0.98948759px;stroke-linecap:butt;stroke-linejoin:miter;stroke-opacity:1;paint-order:fill markers stroke" transform="matrix(0.99544786,0.09530772,-0.0953063,0.99544799,0,0)"/><path d="m 1608.5451,871.48362 c -0.6652,-0.41806 1.3393,-6.20461 7.7004,-14.73613 6.258,-8.39312 17.1142,-19.67902 33.3982,-28.11284 15.3104,-7.89824 34.3503,-12.83439 55.4566,-12.27724 0.2604,0.007 0.5206,0.0146 0.7805,0.0231 21.5613,0.69494 40.7232,6.82415 55.9501,14.99928 15.6009,8.36637 26.3214,18.50379 32.8427,26.3605 6.5355,7.87374 8.8591,13.27714 8.2157,13.74332 -0.8415,0.6097 -4.5765,-3.73376 -11.8617,-10.23776 -7.3216,-6.53654 -18.1468,-15.06533 -33.1003,-22.14392 -14.591,-6.89847 -32.475,-12.10292 -52.3645,-12.72669 -0.2397,-0.007 -0.4796,-0.014 -0.7197,-0.0201 -19.449,-0.48595 -36.9724,3.55587 -51.3623,10.14569 -15.2539,6.95127 -26.2738,16.55936 -33.3363,23.60971 -7.1624,7.15005 -10.6865,11.94675 -11.5994,11.37302 z" id="path6161" style="opacity:1;fill:#ffffff;fill-opacity:1;fill-rule:evenodd;stroke:none;stroke-width:20;stroke-linecap:round;stroke-linejoin:round;stroke-miterlimit:4;stroke-dasharray:none;stroke-dashoffset:0;stroke-opacity:1;paint-order:fill markers stroke"/><path d="m 1670.5079,942.30889 c -14.9138,14.89652 -19.4927,41.08508 -22.5013,60.42301" id="path6165" style="opacity:1;fill:none;fill-opacity:1;fill-rule:evenodd;stroke:#ffffff;stroke-width:5.93692541;stroke-linecap:round;stroke-linejoin:round;stroke-miterlimit:4;stroke-dasharray:none;stroke-dashoffset:0;stroke-opacity:1;paint-order:fill markers stroke"/><ellipse cx="-1679.4027" cy="933.2876" id="ellipse6167" rx="3.4593704" ry="3.4595292" style="fill:#ffffff;fill-opacity:1;fill-rule:evenodd;stroke:none;stroke-width:1px;stroke-linecap:butt;stroke-linejoin:miter;stroke-opacity:1;paint-order:fill markers stroke" transform="scale(-1,1)"/></g></g></svg>